<svg xmlns="http://www.w3.org/2000/svg" viewBox="0 0 32 32">
	<rect fill="#00ff00" height="4" width="7" x="2" y="6"/>
	<g fill="#ff4040" stroke="#ff4040">
		<rect height="5" width="5" x="12" y="4"/>
		<rect height="5" width="5" x="19" y="4"/>
		<path d="M26,9h5V7c0-1.7-1.3-3-3-3h-2V9z"/>
	</g>
	<path fill="#000000" stroke="#00ff00" d="M11,11c-0.6,0-1-0.4-1-1V4H4C2.3,4,1,5.3,1,7v18c0,1.7,1.3,3,3,3h24c1.7,0,3-1.3,3-3V11H11z M7,9H4C3.4,9,3,8.6,3,8  s0.4-1,1-1h3c0.6,0,1,0.4,1,1S7.6,9,7,9z"/>
</svg>
